 <svg xmlns="http://www.w3.org/2000/svg" width="49.06" height="49.012" viewBox="0 0 49.06 49.012">
  <g id="Group_112" data-name="Group 112" transform="translate(-118.822 -474.823)">
    <g id="Group_104" data-name="Group 104" transform="translate(118.812 474.813)">
      <g id="Group_103" data-name="Group 103" transform="translate(14.139 0) rotate(22)">
        <path id="Path_84" data-name="Path 84" d="M7.884.022l7.785,18.7-.092.092H0L7.831,0Z" transform="translate(11.112 18.932)" fill="#a418b1"/>
        <path id="Path_85" data-name="Path 85" d="M0,.022.051,0,.021.072Z" transform="translate(18.944 18.807)" fill="#a418b1"/>
        <path id="Path_86" data-name="Path 86" d="M0,7.854l.03-.072L18.748,0l.03.031V15.664l-.069.07L.031,7.93Z" transform="translate(18.965 11.024)" fill="#a418b1"/>
        <path id="Path_87" data-name="Path 87" d="M.053.075,0,.053.022,0Z" transform="translate(18.943 18.878)" fill="#a418b1"/>
        <path id="Path_88" data-name="Path 88" d="M.124.1,0,.052.125,0,.146.05Z" transform="translate(18.819 18.828)" fill="#a418b1"/>
        <path id="Path_89" data-name="Path 89" d="M18.678,7.8,7.785,18.7,0,0Z" transform="translate(18.996 18.954)" fill="#a418b1"/>
        <path id="Path_90" data-name="Path 90" d="M7.839,18.828.867,2.082,0,0H15.584l.095.1L7.89,18.807Z" transform="translate(11.105 0)" fill="#a418b1"/>
        <path id="Path_91" data-name="Path 91" d="M0,18.711,7.789,0,18.718,10.929Z" transform="translate(18.995 0.095)" fill="#a418b1"/>
        <path id="Path_92" data-name="Path 92" d="M18.792,18.88,0,11.028,11.028,0h.05l7.839,18.828Z" transform="translate(0.027 0)" fill="#a418b1"/>
        <path id="Path_93" data-name="Path 93" d="M.011,15.672,0,15.661V.027L.027,0,18.819,7.853Z" transform="translate(0 11.028)" fill="#a418b1"/>
        <path id="Path_94" data-name="Path 94" d="M18.931.052,11.1,18.863h-.057L0,7.82,18.808,0Z" transform="translate(0.011 18.88)" fill="#a418b1"/>
        <g id="Group_98" data-name="Group 98" transform="translate(10.832 10.832)">
          <path id="Path_95" data-name="Path 95" d="M3.359,8,6.676.039,6.636,0H0L3.336,8.014Z" transform="translate(4.734 0)" fill="#a418b1"/>
          <path id="Path_96" data-name="Path 96" d="M0,.022.022.03.009,0Z" transform="translate(8.071 8.037)" fill="#a418b1"/>
          <path id="Path_97" data-name="Path 97" d="M0,3.357l.013.03L7.987,6.7,8,6.691V.03L7.971,0,.013,3.325Z" transform="translate(8.08 4.68)" fill="#a418b1"/>
          <path id="Path_98" data-name="Path 98" d="M.023,0,0,.009.009.032Z" transform="translate(8.07 8.005)" fill="#a418b1"/>
          <path id="Path_99" data-name="Path 99" d="M.053,0,0,.022.053.044.062.023Z" transform="translate(8.018 8.014)" fill="#a418b1"/>
          <path id="Path_100" data-name="Path 100" d="M7.957,4.641,3.317,0,0,7.966Z" transform="translate(8.093 0.039)" fill="#a418b1"/>
          <path id="Path_101" data-name="Path 101" d="M3.34,0,0,8.021H6.639l.041-.041L3.361.009Z" transform="translate(4.731 8.059)" fill="#a418b1"/>
          <path id="Path_102" data-name="Path 102" d="M0,0,3.318,7.972,7.974,3.316Z" transform="translate(8.092 8.067)" fill="#a418b1"/>
          <path id="Path_103" data-name="Path 103" d="M8.006,0,0,3.345l4.7,4.7h.021L8.059.022Z" transform="translate(0.012 8.036)" fill="#a418b1"/>
          <path id="Path_104" data-name="Path 104" d="M0,0,0,.005V6.666l.012.011L8.018,3.332Z" transform="translate(0 4.705)" fill="#a418b1"/>
          <path id="Path_105" data-name="Path 105" d="M8.066,8.014,4.729,0H4.7L0,4.7,8.013,8.036Z" transform="translate(0.005 0)" fill="#a418b1"/>
        </g>
        <g id="Group_99" data-name="Group 99" transform="translate(8.83 8.83)">
          <path id="Path_106" data-name="Path 106" d="M.012,4.142,9.961,0l.049.049V8.338L0,4.17Z" transform="translate(10.074 5.833)" fill="#a418b1" style="mix-blend-mode: screen;isolation: isolate"/>
          <path id="Path_107" data-name="Path 107" d="M.011.028,0,0,.038.016Z" transform="translate(10.007 9.976)" fill="#a418b1" style="mix-blend-mode: screen;isolation: isolate"/>
          <path id="Path_108" data-name="Path 108" d="M4.179,9.992l-.038-.016L0,.016.016,0H8.335l.037.037L4.219,9.975Z" transform="translate(5.866 0)" fill="#a418b1" style="mix-blend-mode: screen;isolation: isolate"/>
          <path id="Path_109" data-name="Path 109" d="M.04,0,.028.028,0,.017Z" transform="translate(10.045 9.975)" fill="#a418b1" style="mix-blend-mode: screen;isolation: isolate"/>
          <path id="Path_110" data-name="Path 110" d="M.055.011.028.077,0,.011.027,0Z" transform="translate(10.018 9.992)" fill="#a418b1" style="mix-blend-mode: screen;isolation: isolate"/>
          <path id="Path_111" data-name="Path 111" d="M4.153,0l5.8,5.8L0,9.938Z" transform="translate(10.085 0.037)" fill="#a418b1" style="mix-blend-mode: screen;isolation: isolate"/>
          <path id="Path_112" data-name="Path 112" d="M10.018,4.172,0,8.342V.05L.051,0l9.956,4.144Z" transform="translate(0 5.832)" fill="#a418b1" style="mix-blend-mode: screen;isolation: isolate"/>
          <path id="Path_113" data-name="Path 113" d="M9.956,9.959,0,5.815,5.815,0Z" transform="translate(0.051 0.016)" fill="#a418b1" style="mix-blend-mode: screen;isolation: isolate"/>
          <path id="Path_114" data-name="Path 114" d="M10.046.066l-4.178,10L0,4.2V4.171L10.018,0Z" transform="translate(0 10.003)" fill="#a418b1" style="mix-blend-mode: screen;isolation: isolate"/>
          <path id="Path_115" data-name="Path 115" d="M8.339,10.008l-.006.006H.014L0,10,4.178,0Z" transform="translate(5.868 10.069)" fill="#a418b1" style="mix-blend-mode: screen;isolation: isolate"/>
          <path id="Path_116" data-name="Path 116" d="M.028,0l10.01,4.167V4.2L4.161,10.074,0,.066Z" transform="translate(10.046 10.003)" fill="#a418b1" style="mix-blend-mode: screen;isolation: isolate"/>
        </g>
        <g id="Group_100" data-name="Group 100" transform="translate(6.606 6.606)">
          <path id="Path_117" data-name="Path 117" d="M.014,5.059,12.167,0l.06.059V10.184L0,5.094Z" transform="translate(12.305 7.126)" fill="#a418b1" style="mix-blend-mode: screen;isolation: isolate"/>
          <path id="Path_118" data-name="Path 118" d="M.014.033,0,0,.047.019Z" transform="translate(12.224 12.186)" fill="#a418b1" style="mix-blend-mode: screen;isolation: isolate"/>
          <path id="Path_119" data-name="Path 119" d="M5.105,12.205l-.047-.019L0,.02.02,0H10.181l.045.046L5.154,12.185Z" transform="translate(7.165 0)" fill="#a418b1" style="mix-blend-mode: screen;isolation: isolate"/>
          <path id="Path_120" data-name="Path 120" d="M.049,0,.034.034,0,.02Z" transform="translate(12.27 12.185)" fill="#a418b1" style="mix-blend-mode: screen;isolation: isolate"/>
          <path id="Path_121" data-name="Path 121" d="M.068.014.034.095,0,.014.033,0Z" transform="translate(12.237 12.205)" fill="#a418b1" style="mix-blend-mode: screen;isolation: isolate"/>
          <path id="Path_122" data-name="Path 122" d="M5.072,0l7.08,7.08L0,12.139Z" transform="translate(12.319 0.046)" fill="#a418b1" style="mix-blend-mode: screen;isolation: isolate"/>
          <path id="Path_123" data-name="Path 123" d="M12.237,5.1,0,10.191V.062L.062,0,12.224,5.062Z" transform="translate(0 7.123)" fill="#a418b1" style="mix-blend-mode: screen;isolation: isolate"/>
          <path id="Path_124" data-name="Path 124" d="M12.162,12.166,0,7.1,7.1,0Z" transform="translate(0.062 0.02)" fill="#a418b1" style="mix-blend-mode: screen;isolation: isolate"/>
          <path id="Path_125" data-name="Path 125" d="M12.271.081l-5.1,12.214L0,5.127V5.095L12.237,0Z" transform="translate(0 12.219)" fill="#a418b1" style="mix-blend-mode: screen;isolation: isolate"/>
          <path id="Path_126" data-name="Path 126" d="M10.186,12.224l-.007.007H.018L0,12.214,5.1,0Z" transform="translate(7.167 12.3)" fill="#a418b1" style="mix-blend-mode: screen;isolation: isolate"/>
          <path id="Path_127" data-name="Path 127" d="M.034,0,12.26,5.09v.037L5.083,12.3,0,.081Z" transform="translate(12.271 12.219)" fill="#a418b1" style="mix-blend-mode: screen;isolation: isolate"/>
        </g>
        <g id="Group_101" data-name="Group 101" transform="translate(3.937 3.937)">
          <path id="Path_128" data-name="Path 128" d="M6.239.018l6.161,14.8-.073.073H0L6.2,0Z" transform="translate(8.794 14.982)" fill="#a418b1" style="mix-blend-mode: screen;isolation: isolate"/>
          <path id="Path_129" data-name="Path 129" d="M0,.016.04,0,.017.056Z" transform="translate(14.992 14.884)" fill="#a418b1" style="mix-blend-mode: screen;isolation: isolate"/>
          <path id="Path_130" data-name="Path 130" d="M0,6.216.023,6.16,14.837,0l.024.024V12.4l-.055.055L.025,6.276Z" transform="translate(15.008 8.724)" fill="#a418b1" style="mix-blend-mode: screen;isolation: isolate"/>
          <path id="Path_131" data-name="Path 131" d="M.042.06,0,.042.017,0Z" transform="translate(14.991 14.94)" fill="#a418b1" style="mix-blend-mode: screen;isolation: isolate"/>
          <path id="Path_132" data-name="Path 132" d="M.1.082,0,.041.1,0,.115.04Z" transform="translate(14.893 14.9)" fill="#a418b1" style="mix-blend-mode: screen;isolation: isolate"/>
          <path id="Path_133" data-name="Path 133" d="M14.781,6.176,6.161,14.8,0,0Z" transform="translate(15.033 15)" fill="#a418b1" style="mix-blend-mode: screen;isolation: isolate"/>
          <path id="Path_134" data-name="Path 134" d="M6.2,14.9,0,0H12.333l.075.076L6.244,14.884Z" transform="translate(8.788 0)" fill="#a418b1" style="mix-blend-mode: screen;isolation: isolate"/>
          <path id="Path_135" data-name="Path 135" d="M0,14.808,6.164,0l8.649,8.649Z" transform="translate(15.032 0.076)" fill="#a418b1" style="mix-blend-mode: screen;isolation: isolate"/>
          <path id="Path_136" data-name="Path 136" d="M14.872,14.942,0,8.727,8.727,0h.04l6.2,14.9Z" transform="translate(0.021 0)" fill="#a418b1" style="mix-blend-mode: screen;isolation: isolate"/>
          <path id="Path_137" data-name="Path 137" d="M.009,12.4,0,12.394V.021L.021,0,14.893,6.214Z" transform="translate(0 8.727)" fill="#a418b1" style="mix-blend-mode: screen;isolation: isolate"/>
          <path id="Path_138" data-name="Path 138" d="M14.982.041l-6.2,14.887H8.74L0,6.188,14.884,0Z" transform="translate(0.009 14.942)" fill="#a418b1" style="mix-blend-mode: screen;isolation: isolate"/>
        </g>
        <g id="Group_102" data-name="Group 102" transform="translate(12.474 12.473)">
          <path id="Path_139" data-name="Path 139" d="M2.673.008,5.312,6.346l-.031.031H0L2.655,0Z" transform="translate(3.767 6.419)" fill="#a418b1" style="mix-blend-mode: screen;isolation: isolate"/>
          <path id="Path_140" data-name="Path 140" d="M0,.007.017,0,.007.024Z" transform="translate(6.423 6.376)" fill="#a418b1" style="mix-blend-mode: screen;isolation: isolate"/>
          <path id="Path_141" data-name="Path 141" d="M0,2.663l.01-.024L6.356,0l.01.01v5.3l-.024.024L.011,2.689Z" transform="translate(6.43 3.738)" fill="#a418b1" style="mix-blend-mode: screen;isolation: isolate"/>
          <path id="Path_142" data-name="Path 142" d="M.018.026,0,.018.008,0Z" transform="translate(6.422 6.401)" fill="#a418b1" style="mix-blend-mode: screen;isolation: isolate"/>
          <path id="Path_143" data-name="Path 143" d="M.042.035,0,.018.042,0,.05.017Z" transform="translate(6.38 6.383)" fill="#a418b1" style="mix-blend-mode: screen;isolation: isolate"/>
          <path id="Path_144" data-name="Path 144" d="M6.332,2.646,2.639,6.338,0,0Z" transform="translate(6.44 6.426)" fill="#a418b1" style="mix-blend-mode: screen;isolation: isolate"/>
          <path id="Path_145" data-name="Path 145" d="M2.658,6.383,0,0H5.283l.032.033L2.675,6.376Z" transform="translate(3.765 0)" fill="#a418b1" style="mix-blend-mode: screen;isolation: isolate"/>
          <path id="Path_146" data-name="Path 146" d="M0,6.344,2.641,0,6.346,3.705Z" transform="translate(6.44 0.033)" fill="#a418b1" style="mix-blend-mode: screen;isolation: isolate"/>
          <path id="Path_147" data-name="Path 147" d="M6.371,6.4,0,3.739,3.739,0h.017L6.413,6.383Z" transform="translate(0.009 0)" fill="#a418b1" style="mix-blend-mode: screen;isolation: isolate"/>
          <path id="Path_148" data-name="Path 148" d="M0,5.313l0,0V.009L.009,0,6.38,2.662Z" transform="translate(0 3.739)" fill="#a418b1" style="mix-blend-mode: screen;isolation: isolate"/>
          <path id="Path_149" data-name="Path 149" d="M6.419.018,3.764,6.395H3.744L0,2.651,6.376,0Z" transform="translate(0.004 6.401)" fill="#a418b1" style="mix-blend-mode: screen;isolation: isolate"/>
        </g>
      </g>
    </g>
  </g>
</svg>